<?xml version="1.0" encoding="UTF-8" standalone="no"?>
<svg
   xmlns:dc="http://purl.org/dc/elements/1.1/"
   xmlns:cc="http://creativecommons.org/ns#"
   xmlns:rdf="http://www.w3.org/1999/02/22-rdf-syntax-ns#"
   xmlns:svg="http://www.w3.org/2000/svg"
   xmlns="http://www.w3.org/2000/svg"
   xmlns:sodipodi="http://sodipodi.sourceforge.net/DTD/sodipodi-0.dtd"
   xmlns:inkscape="http://www.inkscape.org/namespaces/inkscape"
   height="32"
   width="32"
   version="1.1"
   id="svg25"
   sodipodi:docname="close-window.svg"
   inkscape:version="0.92.3 (unknown)">
  <metadata
     id="metadata29">
    <rdf:RDF>
      <cc:Work
         rdf:about="">
        <dc:format>image/svg+xml</dc:format>
        <dc:type
           rdf:resource="http://purl.org/dc/dcmitype/StillImage" />
      </cc:Work>
    </rdf:RDF>
  </metadata>
  <sodipodi:namedview
     pagecolor="#ffffff"
     bordercolor="#666666"
     borderopacity="1"
     objecttolerance="10"
     gridtolerance="10"
     guidetolerance="10"
     inkscape:pageopacity="0"
     inkscape:pageshadow="2"
     inkscape:window-width="1920"
     inkscape:window-height="1022"
     id="namedview27"
     showgrid="false"
     inkscape:zoom="20.87"
     inkscape:cx="15.50233"
     inkscape:cy="16.023265"
     inkscape:window-x="0"
     inkscape:window-y="0"
     inkscape:window-maximized="1"
     inkscape:current-layer="svg25" />
  <defs
     id="defs13">
    <filter
       id="c"
       height="1.4181"
       width="1.4198"
       color-interpolation-filters="sRGB"
       y="-.20904"
       x="-.20990">
      <feGaussianBlur
         stdDeviation="1.3282637"
         id="feGaussianBlur2" />
    </filter>
    <filter
       id="b"
       height="1.4261"
       width="1.426"
       color-interpolation-filters="sRGB"
       y="-.21306"
       x="-.21298">
      <feGaussianBlur
         stdDeviation="0.71020915"
         id="feGaussianBlur5" />
    </filter>
    <radialGradient
       id="d"
       gradientUnits="userSpaceOnUse"
       cy="5.8191"
       cx="7.6583"
       gradientTransform="matrix(1.4402 0 0 1.4461 4.971 2.8359)"
       r="8.6929">
      <stop
         stop-color="#7b7b7b"
         offset="0"
         id="stop8" />
      <stop
         stop-color="#101010"
         offset="1"
         id="stop10" />
    </radialGradient>
  </defs>
  <g
     style="color:#000000"
     id="g19">
    <path
       d="m 5.0521,14.585 c 0.2175423,-10.9163144 0.1755432,-10.9393044 10.948,-11 10.792346,-0.060808 10.797015,-0.034676 10.948,11 0.150448,10.995411 0.07746,11.040357 -10.948,11 -11.1425355,-0.04078 -11.1663522,-0.04305 -10.948,-11 z"
       id="path17"
       inkscape:connector-curvature="0"
       style="fill:#4d4d4d;stroke:#eeeeec;stroke-width:2"
       sodipodi:nodetypes="sssss" />
  </g>
  <path
     d="m12.002 10.626h1c0.01031-0.00012 0.02079-0.000459 0.03125 0 0.25495 0.01121 0.50986 0.12858 0.6875 0.3125l2.2811 2.2811 2.3125-2.2811c0.26562-0.2305 0.44667-0.3055 0.6875-0.3125h1v1c0 0.28647-0.03435 0.55065-0.25 0.74999l-2.2811 2.2811 2.25 2.25c0.18818 0.18817 0.28124 0.45345 0.28124 0.71875v1h-1c-0.26529-0.000011-0.53058-0.0931-0.71874-0.28124l-2.2798-2.2798-2.2818 2.2811c-0.18824 0.18838-0.45348 0.2805-0.71885 0.2805h-0.9999v-1c-0.000003-0.26529 0.09306-0.53058 0.28124-0.71875l2.2811-2.2495-2.2811-2.2811c-0.21079-0.19456-0.30319-0.46915-0.28119-0.74992v-1z"
     id="path23"
     fill="#fff" />
</svg>
