<?xml version="1.0" encoding="UTF-8" standalone="no"?>
<svg
   xmlns:dc="http://purl.org/dc/elements/1.1/"
   xmlns:cc="http://creativecommons.org/ns#"
   xmlns:rdf="http://www.w3.org/1999/02/22-rdf-syntax-ns#"
   xmlns:svg="http://www.w3.org/2000/svg"
   xmlns="http://www.w3.org/2000/svg"
   xmlns:xlink="http://www.w3.org/1999/xlink"
   xmlns:sodipodi="http://sodipodi.sourceforge.net/DTD/sodipodi-0.dtd"
   xmlns:inkscape="http://www.inkscape.org/namespaces/inkscape"
   height="22"
   width="64"
   version="1.1"
   id="svg88"
   sodipodi:docname="toggle-on-us.svg"
   inkscape:version="0.92.3 (unknown)">
  <metadata
     id="metadata92">
    <rdf:RDF>
      <cc:Work
         rdf:about="">
        <dc:format>image/svg+xml</dc:format>
        <dc:type
           rdf:resource="http://purl.org/dc/dcmitype/StillImage" />
      </cc:Work>
    </rdf:RDF>
  </metadata>
  <sodipodi:namedview
     pagecolor="#ffffff"
     bordercolor="#666666"
     borderopacity="1"
     objecttolerance="10"
     gridtolerance="10"
     guidetolerance="10"
     inkscape:pageopacity="0"
     inkscape:pageshadow="2"
     inkscape:window-width="640"
     inkscape:window-height="480"
     id="namedview90"
     showgrid="false"
     inkscape:zoom="16"
     inkscape:cx="31.636061"
     inkscape:cy="4.0961941"
     inkscape:window-x="1456"
     inkscape:window-y="104"
     inkscape:window-maximized="0"
     inkscape:current-layer="svg88" />
  <defs
     id="defs40">
    <radialGradient
       id="w"
       xlink:href="#n"
       gradientUnits="userSpaceOnUse"
       cy="11"
       cx="42.5"
       gradientTransform="matrix(11,0,0,10,-417,-99)" />
    <linearGradient
       id="n">
      <stop
         offset="0"
         id="stop3" />
      <stop
         stop-opacity=".70588"
         offset="0.6"
         id="stop5" />
      <stop
         stop-opacity="0"
         offset="1"
         id="stop7" />
    </linearGradient>
    <radialGradient
       id="v"
       xlink:href="#m"
       gradientUnits="userSpaceOnUse"
       cy="11"
       cx="42.5"
       gradientTransform="matrix(11,0,0,10,-416,-99)" />
    <linearGradient
       id="m"
       stop-color="#fff">
      <stop
         offset="0"
         id="stop11" />
      <stop
         stop-opacity=".70588"
         offset="0.6"
         id="stop13" />
      <stop
         stop-opacity="0"
         offset="1"
         id="stop15" />
    </linearGradient>
    <radialGradient
       id="u"
       xlink:href="#n"
       gradientUnits="userSpaceOnUse"
       cy="11"
       cx="42.5"
       gradientTransform="matrix(11,0,0,10,-421,-99)" />
    <radialGradient
       id="t"
       xlink:href="#m"
       gradientUnits="userSpaceOnUse"
       cy="11"
       cx="42.5"
       gradientTransform="matrix(11,0,0,10,-420,-99)" />
    <radialGradient
       id="s"
       xlink:href="#n"
       gradientUnits="userSpaceOnUse"
       cy="11"
       cx="42.5"
       gradientTransform="matrix(11,0,0,10,-425,-99)" />
    <radialGradient
       id="x"
       xlink:href="#m"
       gradientUnits="userSpaceOnUse"
       cy="11"
       cx="42.5"
       gradientTransform="matrix(11,0,0,10,-424,-99)" />
    <linearGradient
       id="p"
       y2="28"
       stop-color="#fff"
       gradientUnits="userSpaceOnUse"
       x2="41"
       gradientTransform="translate(-2,-1)"
       y1="1"
       x1="41">
      <stop
         offset="0"
         id="stop22" />
      <stop
         stop-opacity="0"
         offset="1"
         id="stop24" />
    </linearGradient>
    <linearGradient
       id="q"
       y2="2"
       gradientUnits="userSpaceOnUse"
       x2="48"
       gradientTransform="translate(-2,-1)"
       y1="21"
       x1="48">
      <stop
         stop-color="#a0a0a0"
         offset="0"
         id="stop27" />
      <stop
         stop-color="#dcdcdc"
         offset="1"
         id="stop29" />
    </linearGradient>
    <linearGradient
       id="r"
       y2=".49999"
       gradientUnits="userSpaceOnUse"
       x2="40.812"
       gradientTransform="matrix(-1,0,0,-1,64.5,20.5)"
       y1="18.5"
       x1="40.812">
      <stop
         stop-color="#333"
         offset="0"
         id="stop32" />
      <stop
         stop-color="#555"
         offset="1"
         id="stop34" />
    </linearGradient>
    <filter
       id="o"
       height="1.3257"
       width="1.19"
       color-interpolation-filters="sRGB"
       y="-.16284"
       x="-.095004">
      <feGaussianBlur
         stdDeviation="0.55455469"
         id="feGaussianBlur37" />
    </filter>
  </defs>
  <g
     style="color:#000000;fill:#999999"
     id="g50">
    <path
       d="m5 3c-1.1224 0-2 0.8776-2 2v12c0 1.1224 0.8776 2 2 2h54c1.1224 0 2-0.8776 2-2v-12c0-1.1224-0.878-2-2-2h-54z"
       fill="url(#r)"
       id="path42"
       style="fill:#999999" />
  </g>
  <g
     fill="#fff"
     fill-opacity=".98413"
     id="g62"
     style="fill:#4d4d4d">
    <path
       d="m12.93 15.07c-0.594-0.000001-1.1073-0.10267-1.54-0.308-0.433-0.205-0.788-0.488-1.067-0.847-0.279-0.367-0.4877-0.796-0.627-1.287-0.132-0.499-0.198-1.041-0.198-1.628s0.066-1.1293 0.198-1.628c0.1393-0.506 0.3483-0.9423 0.627-1.309s0.634-0.6527 1.067-0.858c0.43266-0.20533 0.946-0.30799 1.54-0.308 0.594 0.0000081 1.1073 0.10267 1.54 0.308 0.43266 0.20534 0.78833 0.49134 1.067 0.858 0.27866 0.36667 0.48399 0.80301 0.616 1.309 0.13933 0.49867 0.20899 1.0413 0.209 1.628-0.000008 0.58667-0.06967 1.1293-0.209 1.628-0.13201 0.49134-0.33734 0.92033-0.616 1.287-0.27867 0.35933-0.63434 0.64167-1.067 0.847-0.43267 0.20533-0.946 0.308-1.54 0.308m0-1.342c1.1367 0.000001 1.705-0.90933 1.705-2.728-0.000006-0.90933-0.13934-1.5913-0.418-2.046-0.27134-0.45466-0.69667-0.68199-1.276-0.682-1.1513 0.0000067-1.727 0.90934-1.727 2.728-0.000002 1.8187 0.572 2.728 1.716 2.728"
       id="path58"
       style="fill:#4d4d4d" />
    <path
       d="m17.699 7.029c0.22733-0.043992 0.44367-0.065992 0.649-0.066 0.22 0.000008 0.44733 0.022008 0.682 0.066l3.058 5.038v-5.038c0.264-0.043992 0.517-0.065992 0.759-0.066 0.22733 0.000008 0.44733 0.022008 0.66 0.066v7.909c-0.23467 0.044-0.44734 0.066-0.638 0.066-0.20534-0.000001-0.429-0.022-0.671-0.066l-3.08-5.027v5.027c-0.23467 0.044-0.473 0.066-0.715 0.066-0.242-0.000001-0.47667-0.022-0.704-0.066v-7.909"
       id="path60"
       style="fill:#4d4d4d" />
  </g>
  <g
     style="color:#000000"
     id="g86">
    <rect
       rx="3"
       ry="3"
       height="18"
       width="30"
       y="2"
       x="32"
       fill="url(#q)"
       id="rect70"
       style="fill:#999999" />
    <path
       opacity=".6"
       d="m35 2c-1.662 0-3 1.338-3 3v12c0 1.662 1.338 3 3 3h24c1.662 0 3-1.338 3-3v-12c0-1.662-1.338-3-3-3zm0 1h24c1.1256 0 2 0.87439 2 2v12c0 1.1256-0.87439 2-2 2h-24c-1.1256 0-2-0.87439-2-2v-12c0-1.1256 0.87439-2 2-2z"
       fill="url(#p)"
       id="path72"
       style="fill:#f2f2f2" />
    <rect
       opacity=".2"
       height="10"
       width="1"
       y="6"
       x="42"
       fill="url(#s)"
       id="rect76"
       style="fill:#000000" />
    <rect
       opacity=".2"
       height="10"
       width="1"
       y="6"
       x="46"
       fill="url(#u)"
       id="rect80"
       style="fill:#000000" />
    <rect
       opacity=".2"
       height="10"
       width="1"
       y="6"
       x="50"
       fill="url(#w)"
       id="rect84"
       style="fill:#000000" />
  </g>
</svg>
