<?xml version="1.0" encoding="UTF-8" standalone="no"?>
<svg
   xmlns:dc="http://purl.org/dc/elements/1.1/"
   xmlns:cc="http://creativecommons.org/ns#"
   xmlns:rdf="http://www.w3.org/1999/02/22-rdf-syntax-ns#"
   xmlns:svg="http://www.w3.org/2000/svg"
   xmlns="http://www.w3.org/2000/svg"
   xmlns:xlink="http://www.w3.org/1999/xlink"
   xmlns:sodipodi="http://sodipodi.sourceforge.net/DTD/sodipodi-0.dtd"
   xmlns:inkscape="http://www.inkscape.org/namespaces/inkscape"
   height="22"
   width="64"
   version="1.1"
   id="svg97"
   sodipodi:docname="toggle-off-us.svg"
   inkscape:version="0.92.3 (unknown)">
  <metadata
     id="metadata101">
    <rdf:RDF>
      <cc:Work
         rdf:about="">
        <dc:format>image/svg+xml</dc:format>
        <dc:type
           rdf:resource="http://purl.org/dc/dcmitype/StillImage" />
      </cc:Work>
    </rdf:RDF>
  </metadata>
  <sodipodi:namedview
     pagecolor="#ffffff"
     bordercolor="#666666"
     borderopacity="1"
     objecttolerance="10"
     gridtolerance="10"
     guidetolerance="10"
     inkscape:pageopacity="0"
     inkscape:pageshadow="2"
     inkscape:window-width="1920"
     inkscape:window-height="1022"
     id="namedview99"
     showgrid="false"
     inkscape:zoom="22.627417"
     inkscape:cx="33.694377"
     inkscape:cy="12.043917"
     inkscape:window-x="0"
     inkscape:window-y="0"
     inkscape:window-maximized="1"
     inkscape:current-layer="svg97" />
  <defs
     id="defs45">
    <linearGradient
       id="d">
      <stop
         offset="0"
         id="stop2" />
      <stop
         stop-opacity=".70588"
         offset="0.6"
         id="stop4" />
      <stop
         stop-opacity="0"
         offset="1"
         id="stop6" />
    </linearGradient>
    <linearGradient
       id="c"
       stop-color="#fff">
      <stop
         offset="0"
         id="stop9" />
      <stop
         stop-opacity=".70588"
         offset="0.6"
         id="stop11" />
      <stop
         stop-opacity="0"
         offset="1"
         id="stop13" />
    </linearGradient>
    <filter
       id="k"
       height="1.3893"
       width="1.1735"
       color-interpolation-filters="sRGB"
       y="-.19465"
       x="-.086737">
      <feGaussianBlur
         stdDeviation="0.66285313"
         id="feGaussianBlur16" />
    </filter>
    <radialGradient
       id="j"
       xlink:href="#d"
       gradientUnits="userSpaceOnUse"
       cy="11"
       cx="42.5"
       gradientTransform="matrix(11,0,0,10,-447,-99)" />
    <radialGradient
       id="i"
       xlink:href="#c"
       gradientUnits="userSpaceOnUse"
       cy="11"
       cx="42.5"
       gradientTransform="matrix(11,0,0,10,-446,-99)" />
    <radialGradient
       id="h"
       xlink:href="#d"
       gradientUnits="userSpaceOnUse"
       cy="11"
       cx="42.5"
       gradientTransform="matrix(11,0,0,10,-451,-99)" />
    <radialGradient
       id="g"
       xlink:href="#c"
       gradientUnits="userSpaceOnUse"
       cy="11"
       cx="42.5"
       gradientTransform="matrix(11,0,0,10,-450,-99)" />
    <radialGradient
       id="f"
       xlink:href="#d"
       gradientUnits="userSpaceOnUse"
       cy="11"
       cx="42.5"
       gradientTransform="matrix(11,0,0,10,-455,-99)" />
    <radialGradient
       id="e"
       xlink:href="#c"
       gradientUnits="userSpaceOnUse"
       cy="11"
       cx="42.5"
       gradientTransform="matrix(11,0,0,10,-454,-99)" />
    <linearGradient
       id="o"
       y2="28"
       stop-color="#fff"
       gradientUnits="userSpaceOnUse"
       x2="41"
       gradientTransform="translate(-32,-1)"
       y1="1"
       x1="41">
      <stop
         offset="0"
         id="stop25" />
      <stop
         stop-opacity="0"
         offset="1"
         id="stop27" />
    </linearGradient>
    <linearGradient
       id="n"
       y2="2"
       gradientUnits="userSpaceOnUse"
       x2="48"
       gradientTransform="translate(-32,-1)"
       y1="21"
       x1="48">
      <stop
         stop-color="#a0a0a0"
         offset="0"
         id="stop30" />
      <stop
         stop-color="#dcdcdc"
         offset="1"
         id="stop32" />
    </linearGradient>
    <linearGradient
       id="m"
       y2="11"
       gradientUnits="userSpaceOnUse"
       x2="62"
       y1="11"
       x1="2">
      <stop
         stop-color="#333"
         offset="0"
         id="stop35" />
      <stop
         stop-color="#555"
         stop-opacity="0"
         offset="1"
         id="stop37" />
    </linearGradient>
    <linearGradient
       id="l"
       y2=".49999"
       gradientUnits="userSpaceOnUse"
       x2="40.812"
       gradientTransform="matrix(-1,0,0,-1,64.5,20.5)"
       y1="18.5"
       x1="40.812">
      <stop
         stop-color="#333"
         offset="0"
         id="stop40" />
      <stop
         stop-color="#555"
         offset="1"
         id="stop42" />
    </linearGradient>
  </defs>
  <g
     style="color:#000000"
     id="g55">
    <path
       d="m5 3c-1.1224 0-2 0.8776-2 2v12c0 1.1224 0.8776 2 2 2h54c1.1224 0 2-0.8776 2-2v-12c0-1.1224-0.878-2-2-2h-54z"
       fill="url(#l)"
       id="path47"
       style="fill:#999999" />
  </g>
  <g
     fill="#fff"
     opacity=".5"
     id="g71">
    <path
       d="m41.231 14.821c-0.594 0-1.1073-0.10267-1.54-0.308-0.43267-0.20533-0.78834-0.48767-1.067-0.847-0.27867-0.36667-0.48767-0.79566-0.627-1.287-0.132-0.49866-0.198-1.0413-0.198-1.628-0.000001-0.58666 0.066-1.1293 0.198-1.628 0.13933-0.50599 0.34833-0.94233 0.627-1.309 0.27866-0.36666 0.63433-0.65266 1.067-0.858 0.43266-0.20533 0.946-0.30799 1.54-0.308 0.594 0.000008 1.1073 0.10267 1.54 0.308 0.43266 0.20534 0.78833 0.49134 1.067 0.858 0.27866 0.36667 0.48399 0.80301 0.616 1.309 0.13933 0.49867 0.20899 1.0413 0.209 1.628-0.000008 0.58667-0.06967 1.1293-0.209 1.628-0.13201 0.49134-0.33734 0.92033-0.616 1.287-0.27867 0.35933-0.63434 0.64167-1.067 0.847-0.43267 0.20533-0.946 0.308-1.54 0.308m0-1.342c1.1367 0.000001 1.705-0.90933 1.705-2.728-0.000006-0.90933-0.13934-1.5913-0.418-2.046-0.27134-0.45466-0.69667-0.68199-1.276-0.682-1.1513 0.0000066-1.727 0.90934-1.727 2.728-0.000003 1.8187 0.572 2.728 1.716 2.728"
       id="path65"
       style="fill:#000000" />
    <path
       d="m46 6.7804h4.488c0.044 0.22001 0.066 0.44367 0.066 0.671-0.000005 0.24201-0.02201 0.47301-0.066 0.693h-2.882v1.859h2.288c0.044 0.23467 0.066 0.462 0.066 0.682-0.000005 0.23467-0.02201 0.46567-0.066 0.693h-2.288v3.311c-0.27867 0.044-0.54267 0.066-0.792 0.066-0.27134 0-0.54267-0.022-0.814-0.066v-7.909"
       id="path67"
       style="fill:#000000" />
    <path
       d="m51.586 6.7804h4.488c0.04399 0.22001 0.06599 0.44367 0.066 0.671-0.000006 0.24201-0.02201 0.47301-0.066 0.693h-2.882v1.859h2.288c0.04399 0.23467 0.066 0.462 0.066 0.682-0.000005 0.23467-0.02201 0.46567-0.066 0.693h-2.288v3.311c-0.27867 0.044-0.54267 0.066-0.792 0.066-0.27134 0-0.54267-0.022-0.814-0.066v-7.909"
       id="path69"
       style="fill:#000000" />
  </g>
  <g
     style="color:#000000"
     id="g95">
    <rect
       rx="3"
       ry="3"
       height="18"
       width="30"
       y="2"
       x="2"
       fill="url(#n)"
       id="rect79"
       style="fill:#999999" />
    <path
       opacity=".6"
       d="m5 2c-1.662 0-3 1.338-3 3v12c0 1.662 1.338 3 3 3h24c1.662 0 3-1.338 3-3v-12c0-1.662-1.338-3-3-3zm0 1h24c1.1256 0 2 0.87439 2 2v12c0 1.1256-0.87439 2-2 2h-24c-1.1256 0-2-0.874-2-2v-12c0-1.1256 0.8744-2 2-2z"
       fill="url(#o)"
       id="path81"
       style="fill:#f2f2f2" />
    <rect
       opacity=".2"
       height="10"
       width="1"
       y="6"
       x="12"
       fill="url(#f)"
       id="rect85"
       style="fill:#000000" />
    <rect
       opacity=".2"
       height="10"
       width="1"
       y="6"
       x="16"
       fill="url(#h)"
       id="rect89"
       style="fill:#000000" />
    <rect
       opacity=".2"
       height="10"
       width="1"
       y="6"
       x="20"
       fill="url(#j)"
       id="rect93"
       style="fill:#000000" />
  </g>
</svg>
